<svg version="1.1" class="clearos-svg clearfoundation app-vendor-clearfoundation app-free app-category-network app-sub-category-infrastructure" viewBox="0 0 400 400" preserveAspectRatio="xMinYMin" xmlns="http://www.w3.org/2000/svg" xmlns:xlink= "http://www.w3.org/1999/xlink">
<path fill="#AA0707" d="M91.666,184.647"/>
<path fill="#AA0707" d="M123.245,247.805"/>
<path fill="#AA0707" d="M91.666,184.647"/>
<path fill="#AA0707" d="M123.245,247.805"/>
<g>
	<path fill="#686868" d="M271.527,141.188c-5.17-5.146-13.498-5.146-18.715,0l-59.313,59.348c-5.146,5.152-5.146,13.496,0,18.633
		l0,0c5.161,5.168,13.528,5.168,18.683,0l59.348-59.307C276.695,154.701,276.695,146.333,271.527,141.188L271.527,141.188z"/>
	<path fill="#686868" d="M107.393,114.402c-5.162,5.146-3.742,14.925,3.215,21.873l79.709,79.701
		c6.925,6.957,16.711,8.394,21.863,3.19l0,0c5.17-5.17,3.75-14.916-3.224-21.849l-79.692-79.702
		C122.339,110.679,112.552,109.233,107.393,114.402L107.393,114.402z"/>
	<path fill="#686868" d="M199.992,58.559c13.018,0,23.578,10.562,23.578,23.579c0,13.019-10.562,23.57-23.578,23.57
		c-13.01,0-23.563-10.554-23.563-23.57C176.43,69.119,186.982,58.559,199.992,58.559z"/>
	<path fill="#686868" d="M199.992,295.201c13.018,0,23.578,10.563,23.578,23.578c0,13.02-10.562,23.58-23.578,23.58
		c-13.01,0-23.563-10.563-23.563-23.58C176.43,305.764,186.982,295.201,199.992,295.201z"/>
	<path fill="#686868" d="M316.898,180.188c13.018,0,23.577,10.553,23.577,23.57s-10.562,23.578-23.577,23.578
		c-13.021,0-23.58-10.561-23.58-23.578C293.318,190.739,303.879,180.188,316.898,180.188z"/>
	<path fill="#686868" d="M85.91,180.188c13.02,0,23.57,10.553,23.57,23.57s-10.553,23.578-23.57,23.578
		c-13.019,0-23.579-10.561-23.579-23.578C62.331,190.739,72.893,180.188,85.91,180.188z"/>
	<path fill="#686868" d="M199.992,2.938C91.15,2.938,2.938,91.15,2.938,199.992c0,108.865,88.215,197.07,197.056,197.07
		c108.866,0,197.069-88.205,197.069-197.07C397.063,91.15,308.793,2.938,199.992,2.938z M199.992,364.057
		c-90.59,0-164.04-73.48-164.04-164.063c0-90.606,73.448-164.056,164.04-164.056c90.583,0,164.063,73.448,164.063,164.056
		C364.056,290.574,290.574,364.057,199.992,364.057z"/>
</g>
</svg>
